Coordinates
version=1
nRows=10
nColumns=40
inDegrees=yes

Units are S.I. units (second, meters, Newtons, ...)
If the header above contains a line with 'inDegrees', this indicates whether rotational values are in degrees (yes) or radians (no).

endheader
time	pelvis_tilt	pelvis_list	pelvis_rotation	pelvis_tx	pelvis_ty	pelvis_tz	hip_flexion_r	hip_adduction_r	hip_rotation_r	knee_angle_r	knee_angle_r_beta	ankle_angle_r	subtalar_angle_r	mtp_angle_r	hip_flexion_l	hip_adduction_l	hip_rotation_l	knee_angle_l	knee_angle_l_beta	ankle_angle_l	subtalar_angle_l	mtp_angle_l	lumbar_extension	lumbar_bending	lumbar_rotation	arm_flex_r	arm_add_r	arm_rot_r	elbow_flex_r	pro_sup_r	wrist_flex_r	wrist_dev_r	arm_flex_l	arm_add_l	arm_rot_l	elbow_flex_l	pro_sup_l	wrist_flex_l	wrist_dev_l
      4.90000000	     36.21939754	      0.97962477	   -176.09729712	      0.46826896	      0.57163883	     -0.61351783	    107.02307429	    -14.86682819	      0.81283460	     89.91940647	      1.56938970	     23.72484878	      0.00000000	      0.00000000	    106.77789834	     -7.48148858	      4.49183131	     87.64949536	      1.52977228	     20.26773900	      0.00000000	      0.00000000	    -25.51563984	      3.28078042	      2.49547511	     61.30559511	    -10.70061374	     38.63756726	      1.30599964	     86.73855820	      0.00000000	      0.00000000	     51.94400185	     -1.93904793	     55.57755628	      0.69612813	      3.13210180	      0.00000000	      0.00000000
      4.90500000	     36.38270104	      0.88062497	   -176.18002557	      0.46819367	      0.57237365	     -0.61372822	    107.08665961	    -14.71455995	      0.89386266	     89.73185590	      1.56611633	     23.62068092	      0.00000000	      0.00000000	    106.76242276	     -7.56790548	      4.39938633	     87.46393398	      1.52653362	     20.23155811	      0.00000000	      0.00000000	    -25.44251878	      3.14302031	      2.52887213	     61.31905863	    -10.68484487	     38.75430926	      1.31783703	     86.71725223	      0.00000000	      0.00000000	     52.10137634	     -1.86218807	     54.67664039	      0.69860832	      3.02628403	      0.00000000	      0.00000000
      4.91000000	     36.51816733	      0.88078287	   -176.17294385	      0.46813242	      0.57322732	     -0.61385105	    107.08425633	    -14.67939073	      0.88466502	     89.54037654	      1.56277438	     23.53874524	      0.00000000	      0.00000000	    106.74590516	     -7.53973345	      4.39595413	     87.26824646	      1.52311823	     20.16997016	      0.00000000	      0.00000000	    -25.39980165	      3.13873323	      2.54886255	     61.34991343	    -10.67638022	     38.70107734	      1.30741622	     86.70523473	      0.00000000	      0.00000000	     52.14152228	     -1.81838583	     54.70964332	      0.69212410	      3.00791716	      0.00000000	      0.00000000
      4.91500000	     36.64456510	      0.86550675	   -176.24164938	      0.46802850	      0.57405571	     -0.61412243	    107.07276176	    -14.56152587	      0.86753024	     89.35153542	      1.55947848	     23.48738489	      0.00000000	      0.00000000	    106.71583103	     -7.59829596	      4.40094108	     87.07883150	      1.51981232	     20.15803074	      0.00000000	      0.00000000	    -25.36413211	      3.08226837	      2.60086429	     61.35958059	    -10.64700284	     38.86651600	      1.29633355	     86.64559215	      0.00000000	      0.00000000	     52.17411996	     -1.81029412	     54.74037550	      0.68712846	      3.00165644	      0.00000000	      0.00000000
      4.92000000	     37.08179131	      1.29218339	   -176.12171651	      0.46840765	      0.57454060	     -0.61412083	    107.24500782	    -14.70033828	      0.45696148	     89.06974259	      1.55456027	     23.38143501	      0.00000000	      0.00000000	    107.16305227	     -7.33427248	      4.82899113	     86.80451880	      1.51502466	     19.78549011	      0.00000000	      0.00000000	    -24.98676818	      3.62412541	      2.51677617	     61.39078918	    -10.54460008	     40.25825593	      1.31637855	     85.74095386	      0.00000000	      0.00000000	     52.72891913	     -1.57724890	     49.80367091	      0.68357454	      3.34732239	      0.00000000	      0.00000000
      4.92500000	     36.67293802	      1.01148374	   -176.44006526	      0.46738329	      0.57629116	     -0.61477485	    106.66283282	    -14.33370502	      0.53052138	     88.92216538	      1.55198456	     23.50786073	      0.00000000	      0.00000000	    106.46091494	     -7.77835127	      4.58708172	     86.75849508	      1.51422139	     20.31103576	      0.00000000	      0.00000000	    -25.60117786	      3.16136832	      2.76604879	     61.48425636	    -10.54288262	     39.87813590	      1.27560117	     86.61087300	      0.00000000	      0.00000000	     52.93199679	     -1.49770957	     49.73335737	      0.69890074	      2.87993822	      0.00000000	      0.00000000
      4.93000000	     37.17847459	      0.75664547	   -176.44966689	      0.46794501	      0.57670969	     -0.61489148	    107.16830684	    -14.20084027	      0.83305856	     88.65337647	      1.54729331	     23.30546926	      0.00000000	      0.00000000	    106.73596432	     -7.69473542	      4.41179129	     86.43029509	      1.50849322	     19.98804202	      0.00000000	      0.00000000	    -25.15498165	      2.85551673	      2.79866084	     61.45201612	    -10.64769032	     39.02184128	      1.28298853	     86.68402914	      0.00000000	      0.00000000	     52.46371511	     -1.65856915	     53.67677308	      0.68250634	      2.94794669	      0.00000000	      0.00000000
      4.93500000	     37.27055950	      0.87320067	   -176.34352330	      0.46772781	      0.57780456	     -0.61485606	    107.06853367	    -14.32657268	      0.71084963	     88.47736958	      1.54422141	     23.17513914	      0.00000000	      0.00000000	    106.66511066	     -7.56905166	      4.46745269	     86.17638644	      1.50406168	     19.93623727	      0.00000000	      0.00000000	    -25.18388082	      3.02683705	      2.74017720	     61.50608881	    -10.61410704	     38.87698797	      1.29735202	     86.71116145	      0.00000000	      0.00000000	     52.63141981	     -1.53801899	     52.56467076	      0.67867227	      2.87221280	      0.00000000	      0.00000000
      4.94000000	     37.29209485	      0.71416850	   -176.60571872	      0.46741553	      0.57891103	     -0.61540649	    106.94409955	    -14.00377269	      0.74533126	     88.24708707	      1.54020222	     23.07167992	      0.00000000	      0.00000000	    106.48045443	     -7.78050289	      4.48309105	     86.03931333	      1.50166930	     19.97915533	      0.00000000	      0.00000000	    -25.30062806	      2.75327989	      2.95782998	     61.53134660	    -10.61705260	     39.10207642	      1.29029724	     86.54179665	      0.00000000	      0.00000000	     52.54052391	     -1.59720180	     53.75643564	      0.66992417	      2.96718756	      0.00000000	      0.00000000
      4.94500000	     37.55130005	      0.83026161	   -176.44049568	      0.46754072	      0.57981257	     -0.61516432	    107.02966577	    -14.20542215	      0.62725887	     88.01617786	      1.53617210	     23.01400672	      0.00000000	      0.00000000	    106.59796147	     -7.57803081	      4.47177321	     85.75204365	      1.49665550	     19.83410356	      0.00000000	      0.00000000	    -25.14926961	      2.94840873	      2.85720095	     61.58015579	    -10.66311773	     39.35568514	      1.30033833	     86.66803718	      0.00000000	      0.00000000	     52.80531912	     -1.42065559	     52.00339216	      0.67570400	      2.86992287	      0.00000000	      0.00000000
